<?xml version="1.0" encoding="UTF-8"?>
<svg width="163px" height="48px" viewBox="0 0 163 48" version="1.1" xmlns="http://www.w3.org/2000/svg" xmlns:xlink="http://www.w3.org/1999/xlink">
    <!-- Generator: Sketch 46.2 (44496) - http://www.bohemiancoding.com/sketch -->
    <title>XL-Logo</title>
    <desc>Created with Sketch.</desc>
    <defs></defs>
    <g id="Symbols" stroke="none" stroke-width="1" fill="none" fill-rule="evenodd">
        <g id="Logo-Avans-Red" fill="#C6002A">
            <g id="XL-Logo">
                <g>
                    <path d="M7.86765714,1.54182857 C5.66651429,2.4944 6.14194286,5.38411429 6.51051429,7.55268571 L6.51565714,7.56125714 C8.45451429,6.83954286 11.3002286,5.70868571 14.2470857,5.71954286 C17.1939429,5.7304 18.5556571,6.57497143 18.0219429,9.11325714 C17.4876571,11.6515429 14.9322286,23.9789714 14.8676571,24.2909714 C14.3962286,24.6366857 8.11565714,26.0195429 8.21737143,21.7932571 C8.31851429,17.6172571 11.5602286,16.0412571 13.4933714,15.1966857 C14.8750857,14.5926857 14.9779429,11.3795429 15.2042286,10.4955429 C8.51794286,11.4138286 1.44194286,13.8515429 0.210514286,20.6349714 C-1.02148571,27.4178286 3.24422857,29.8886857 10.7550857,29.9178286 C18.2665143,29.9469714 22.2728,27.7224 22.2728,27.7224 C22.2728,27.7224 25.1173714,14.0852571 25.8099429,10.7075429 C26.5025143,7.33097143 26.1448,4.61268571 24.6808,2.81154286 C23.2213714,1.01897143 20.6122286,0.000114285714 17.2030857,0.000114285714 C12.0048,0.000114285714 8.57565714,1.2464 7.86765714,1.54182857" id="Fill-1"></path>
                    <path d="M56.9851429,1.54182857 C54.784,2.4944 55.26,5.38411429 55.628,7.55268571 L55.6331429,7.56125714 C57.572,6.83954286 60.4182857,5.70868571 63.3651429,5.71954286 C66.3114286,5.7304 67.6737143,6.57497143 67.1394286,9.11325714 C66.6051429,11.6515429 64.0497143,23.9789714 63.9851429,24.2909714 C63.5137143,24.6366857 57.2331429,26.0195429 57.3354286,21.7932571 C57.4365714,17.6172571 60.6777143,16.0412571 62.6114286,15.1966857 C63.9925714,14.5926857 64.096,11.3795429 64.3217143,10.4955429 C57.6354286,11.4138286 50.5594286,13.8515429 49.328,20.6349714 C48.096,27.4178286 52.3617143,29.8886857 59.8731429,29.9178286 C67.384,29.9469714 71.3902857,27.7224 71.3902857,27.7224 C71.3902857,27.7224 74.2348571,14.0852571 74.9274286,10.7075429 C75.62,7.33097143 75.2628571,4.61268571 73.7982857,2.81154286 C72.3388571,1.01897143 69.7297143,0.000114285714 66.3211429,0.000114285714 C61.1222857,0.000114285714 57.6931429,1.2464 56.9851429,1.54182857" id="Fill-3"></path>
                    <path d="M40.2482286,27.9709714 C41.0562286,26.3841143 54.2390857,0.534971429 54.2390857,0.534971429 L47.8773714,0.534971429 C45.8139429,0.534971429 44.7070857,2.9424 43.9568,4.64525714 C43.2985143,6.14011429 40.8065143,11.4264 37.5590857,19.0229714 C37.6562286,17.6909714 37.1493714,5.85782857 37.0253714,3.2624 C36.9459429,1.59954286 35.5539429,0.534971429 33.0710857,0.534971429 L28.0219429,0.534971429 L31.2156571,29.4858286 C31.2156571,29.4858286 37.0865143,29.4801143 37.4928,29.4858286 C37.8996571,29.4921143 39.4402286,29.5578286 40.2482286,27.9709714" id="Fill-5"></path>
                    <path d="M91.7354286,29.7382857 L98.2314286,29.7382857 C99.9737143,20.9988571 102.467429,9.892 102.526286,7.58914286 C102.608,4.348 100.658857,0.0845714286 91.7182857,0.0845714286 C85.316,0.0845714286 80.2731429,2.28857143 80.2731429,2.28857143 L75.264,26.6045714 C75.264,26.6045714 80.684,24.2262857 82.0971429,23.5982857 C84.1091429,22.7028571 84.5365714,20.8405714 85.0205714,18.6588571 C85.5045714,16.4777143 87.5371429,6.65828571 87.5988571,6.35714286 C88.3994286,6.11085714 89.8617143,5.84114286 91.152,5.84114286 C93.2451429,5.84114286 94.3611429,6.76514286 94.352,8.32857143 C94.348,9.02514286 91.6451429,22.2428571 90.5914286,27.5137143 C90.5914286,27.5137143 89.9845714,29.824 91.7354286,29.7382857" id="Fill-7"></path>
                    <path d="M123.175714,4.58451429 L124.520857,2.33365714 C124.520857,2.33365714 121.741429,0.0113714286 116.617429,0.0113714286 C109.33,0.0113714286 105.293429,5.27365714 105.293429,10.2239429 C105.293429,16.8090857 112.616286,16.3502286 112.616286,19.9656571 C112.616286,21.7176571 111.123714,24.6428 106.013429,23.1725143 C104.243143,22.6628 103.215714,23.5176571 102.812286,24.1433714 C102.466,24.6816571 100.733429,27.5885143 100.733429,27.5885143 C100.733429,27.5885143 103.733429,29.9176571 108.832857,29.9176571 C117.439714,29.9176571 121.592286,24.2965143 121.592286,19.0753714 C121.592286,12.6513714 113.756857,12.7370857 113.756857,9.23022857 C113.756857,7.31937143 115.554,5.22851429 118.916286,6.07594286 C119.806571,6.30051429 121.607714,7.0588 123.175714,4.58451429" id="Fill-9"></path>
                    <path d="M94.6745714,38.4648571 L93.4951429,44.1654286 L91.65,44.1654286 L92.8454286,38.4037143 C92.8751429,38.2671429 92.8894286,38.1317143 92.8894286,38.0111429 C92.8894286,37.4517143 92.602,37.0134286 91.726,37.0134286 C91.2265714,37.0134286 90.7877143,37.1334286 90.3345714,37.3608571 L88.9288571,44.1654286 L87.0831429,44.1654286 L89.5482857,32.2957143 L91.3934286,32.2957143 L90.5465714,36.3322857 C91.0157143,36.09 91.7574286,35.8625714 92.466,35.8625714 C93.9785714,35.8625714 94.7345714,36.634 94.7345714,37.8134286 C94.7345714,38.0254286 94.7202857,38.2374286 94.6745714,38.4648571" id="Fill-11"></path>
                    <path d="M100.162286,37.0278857 C99.3771429,37.0278857 98.8331429,37.5718857 98.4554286,38.3730286 C98.0617143,39.2067429 97.7142857,40.6867429 97.7142857,41.6090286 C97.7142857,42.4410286 97.9857143,43.0604571 98.8331429,43.0604571 C99.6337143,43.0604571 100.162286,42.5158857 100.525714,41.7301714 C100.918286,40.8838857 101.252571,39.3713143 101.252571,38.4490286 C101.252571,37.6330286 100.995429,37.0278857 100.162286,37.0278857 M101.932,42.5016 C101.206857,43.6198857 100.132,44.3158857 98.6674286,44.3158857 C96.8377143,44.3158857 95.9291429,43.1358857 95.9291429,41.4438857 C95.9291429,40.2176 96.3525714,38.6770286 97.0171429,37.6638857 C97.7594286,36.5433143 98.8634286,35.8627429 100.299429,35.8627429 C102.144571,35.8627429 103.021143,37.0278857 103.021143,38.7364571 C103.021143,39.9461714 102.582857,41.5027429 101.932,42.5016" id="Fill-13"></path>
                    <path d="M108.843086,36.952 C107.935657,36.952 107.255657,37.4657143 106.740229,38.4034286 C106.287657,39.2365714 105.955086,40.5965714 105.955086,41.5497143 C105.955086,42.6074286 106.409371,43.1674286 107.436229,43.1674286 C107.8608,43.1674286 108.253371,43.06 108.540229,42.9102857 L109.748229,37.1177143 C109.5848,37.028 109.311086,36.952 108.843086,36.952 L108.843086,36.952 Z M110.0528,44.2857143 C109.600229,46.4931429 108.1168,47.5668571 106.0448,47.5668571 C104.957371,47.5668571 103.928229,47.3251429 103.354514,46.9771429 L104.0648,45.8285714 C104.4728,46.0554286 105.197371,46.2514286 105.969943,46.2514286 C107.284229,46.2514286 107.997371,45.4651429 108.223086,44.452 L108.330514,43.9525714 C107.980229,44.1194286 107.450514,44.2411429 106.801943,44.2411429 C105.184229,44.2411429 104.156229,43.1817143 104.156229,41.4291429 C104.156229,40.1874286 104.654514,38.6468571 105.379657,37.664 C106.211086,36.528 107.450514,35.8628571 109.086514,35.8628571 C110.233371,35.8628571 111.171086,36.1342857 111.670514,36.4382857 L110.0528,44.2857143 Z" id="Fill-15"></path>
                    <path d="M116.752171,36.9821143 C116.009886,36.9821143 115.329886,37.4512571 114.861314,38.3272571 C114.648171,38.7364 114.468171,39.2364 114.346457,39.8249714 L117.855029,39.3106857 C117.931029,38.9786857 117.960743,38.6609714 117.960743,38.3889714 C117.960743,37.4358286 117.521886,36.9821143 116.752171,36.9821143 M119.428743,40.0535429 L114.301886,40.7626857 C114.181314,42.0032571 114.5436,43.0455429 116.024743,43.0455429 C116.901886,43.0455429 117.719029,42.7741143 118.172743,42.5449714 L118.384171,43.7261143 C117.764171,44.0426857 116.782457,44.3158286 115.648171,44.3158286 C113.743029,44.3158286 112.532171,43.2724 112.532171,41.2924 C112.532171,40.0826857 112.970457,38.6466857 113.6516,37.6638286 C114.439029,36.5278286 115.586457,35.8626857 116.948743,35.8626857 C118.609886,35.8626857 119.609886,36.8312571 119.609886,38.6009714 C119.609886,39.0392571 119.5476,39.5226857 119.428743,40.0535429" id="Fill-17"></path>
                    <path d="M125.581371,37.4514286 C125.3408,37.2405714 124.854514,37.0737143 124.341371,37.0737143 C123.542514,37.0737143 122.921371,37.6782857 122.921371,38.3891429 C122.921371,39.7034286 125.399657,39.3868571 125.399657,41.3371429 C125.399657,42.88 124.161371,44.316 121.921371,44.316 C121.060229,44.316 120.213943,44.0588571 119.775086,43.7257143 L120.471086,42.592 C120.728229,42.7897143 121.257943,43.016 121.921371,43.016 C122.845371,43.016 123.479657,42.2902857 123.479657,41.5497143 C123.479657,40.2177143 121.136229,40.5651429 121.136229,38.6154286 C121.136229,37.2405714 122.285371,35.8628571 124.205943,35.8628571 C125.067657,35.8628571 125.732229,36.0897143 126.2168,36.4525714 L125.581371,37.4514286 Z" id="Fill-19"></path>
                    <path d="M132.386057,37.4358286 C132.218629,37.3141143 131.872343,37.1032571 131.418057,37.1032571 C130.662057,37.1032571 130.027771,37.5272571 129.574057,38.3129714 C129.120343,39.0849714 128.8312,40.2935429 128.8312,41.2021143 C128.8312,42.3049714 129.270629,42.9558286 130.072343,42.9558286 C130.540914,42.9558286 131.040343,42.7741143 131.298057,42.5775429 L131.493486,43.7261143 C131.114629,44.0432571 130.390057,44.3158286 129.528343,44.3158286 C127.985486,44.3158286 126.972914,43.0906857 126.972914,41.2312571 C126.972914,40.0209714 127.395771,38.5695429 128.076914,37.5866857 C128.862629,36.4381143 129.982057,35.8626857 131.146057,35.8626857 C132.0232,35.8626857 132.748343,36.1958286 133.006629,36.4524 L132.386057,37.4358286 Z" id="Fill-21"></path>
                    <path d="M140.507143,38.4648571 L139.327714,44.1654286 L137.482,44.1654286 L138.676286,38.4037143 C138.706571,38.2671429 138.720857,38.1317143 138.720857,38.0111429 C138.720857,37.4517143 138.434,37.0134286 137.556857,37.0134286 C137.058571,37.0134286 136.620286,37.1334286 136.166571,37.3608571 L134.759143,44.1654286 L132.915714,44.1654286 L135.381429,32.2957143 L137.226,32.2957143 L136.376857,36.3322857 C136.846571,36.09 137.587143,35.8625714 138.298571,35.8625714 C139.811143,35.8625714 140.566,36.634 140.566,37.8134286 C140.566,38.0254286 140.551714,38.2374286 140.507143,38.4648571" id="Fill-23"></path>
                    <path d="M145.995429,37.0278857 C145.207429,37.0278857 144.664571,37.5718857 144.286857,38.3730286 C143.893714,39.2067429 143.545143,40.6867429 143.545143,41.6090286 C143.545143,42.4410286 143.816571,43.0604571 144.664571,43.0604571 C145.465714,43.0604571 145.995429,42.5158857 146.357143,41.7301714 C146.751429,40.8838857 147.083429,39.3713143 147.083429,38.4490286 C147.083429,37.6330286 146.826286,37.0278857 145.995429,37.0278857 M147.765143,42.5016 C147.039429,43.6198857 145.964571,44.3158857 144.498286,44.3158857 C142.669143,44.3158857 141.761143,43.1358857 141.761143,41.4438857 C141.761143,40.2176 142.185143,38.6770286 142.849143,37.6638857 C143.589714,36.5433143 144.693714,35.8627429 146.131429,35.8627429 C147.976,35.8627429 148.853143,37.0278857 148.853143,38.7364571 C148.853143,39.9461714 148.414857,41.5027429 147.765143,42.5016" id="Fill-25"></path>
                    <path d="M154.250457,37.0278857 C153.464743,37.0278857 152.921886,37.5718857 152.542457,38.3730286 C152.149886,39.2067429 151.801314,40.6867429 151.801314,41.6090286 C151.801314,42.4410286 152.073886,43.0604571 152.921886,43.0604571 C153.721886,43.0604571 154.250457,42.5158857 154.614457,41.7301714 C155.006457,40.8838857 155.3396,39.3713143 155.3396,38.4490286 C155.3396,37.6330286 155.082457,37.0278857 154.250457,37.0278857 M156.021314,42.5016 C155.293886,43.6198857 154.221314,44.3158857 152.753314,44.3158857 C150.9236,44.3158857 150.017314,43.1358857 150.017314,41.4438857 C150.017314,40.2176 150.440743,38.6770286 151.105314,37.6638857 C151.845886,36.5433143 152.951029,35.8627429 154.3876,35.8627429 C156.233314,35.8627429 157.108171,37.0278857 157.108171,38.7364571 C157.108171,39.9461714 156.668743,41.5027429 156.021314,42.5016" id="Fill-27"></path>
                    <polygon id="Fill-29" points="159.7248 44.1651429 157.895657 44.1651429 160.359086 32.296 162.189943 32.296"></polygon>
                </g>
            </g>
        </g>
    </g>
</svg>