<?xml version="1.0" encoding="utf-8"?>
<!-- Generator: Adobe Illustrator 24.3.0, SVG Export Plug-In . SVG Version: 6.00 Build 0)  -->
<!DOCTYPE svg PUBLIC "-//W3C//DTD SVG 1.0//EN" "http://www.w3.org/TR/2001/REC-SVG-20010904/DTD/svg10.dtd" [
  <!ENTITY ns_extend "http://ns.adobe.com/Extensibility/1.0/">
  <!ENTITY ns_ai "http://ns.adobe.com/AdobeIllustrator/10.0/">
  <!ENTITY ns_graphs "http://ns.adobe.com/Graphs/1.0/">
  <!ENTITY ns_vars "http://ns.adobe.com/Variables/1.0/">
  <!ENTITY ns_imrep "http://ns.adobe.com/ImageReplacement/1.0/">
  <!ENTITY ns_sfw "http://ns.adobe.com/SaveForWeb/1.0/">
  <!ENTITY ns_custom "http://ns.adobe.com/GenericCustomNamespace/1.0/">
  <!ENTITY ns_adobe_xpath "http://ns.adobe.com/XPath/1.0/">
  ]>
<svg width="106" height="146" xmlns="http://www.w3.org/2000/svg" xmlns:svg="http://www.w3.org/2000/svg" xmlns:xlink="http://www.w3.org/1999/xlink">
  <style type="text/css">.st0{clip-path:url(#SVGID_2_);}
    .st1{clip-path:url(#SVGID_4_);fill:#00A3A6;}</style>
  <g class="layer">
    <title>Layer 1</title>
    <g id="svg_2">
      <g id="svg_3">
        <g id="svg_4">
          <defs>
            <rect id="SVGID_1_" x="-21.5" y="31.8" width="148.91" height="70.61"/>
          </defs>
          <clipPath id="SVGID_2_">
            <use xlink:href="#SVGID_1_" id="svg_5"/>
          </clipPath>
          <g class="st0" id="svg_6">
            <defs>
              <rect id="SVGID_3_" x="-21.5" y="31.8" width="148.91" height="70.61"/>
            </defs>
            <clipPath id="SVGID_4_">
              <use xlink:href="#SVGID_3_" id="svg_7"/>
            </clipPath>
            <path class="st1" d="m4.9,53.58l-4.55,0c-0.18,0 -0.33,0.15 -0.33,0.33l0,26.33c0,0.18 0.15,0.33 0.33,0.33l4.55,0c0.18,0 0.33,-0.15 0.33,-0.33l0,-26.33c0,-0.18 -0.15,-0.33 -0.33,-0.33" id="svg_8"/>
            <path class="st1" d="m30.55,53.58l-4.53,0c-0.18,0 -0.33,0.15 -0.33,0.33l0,17.61l-11.16,-17.78c-0.06,-0.1 -0.17,-0.15 -0.28,-0.15l-4.56,0c-0.18,0 -0.33,0.15 -0.33,0.33l0,26.33c0,0.18 0.15,0.33 0.33,0.33l4.57,0c0.18,0 0.33,-0.15 0.33,-0.33l0,-17.54l11.11,17.71c0.06,0.1 0.17,0.15 0.28,0.15l4.57,0c0.18,0 0.33,-0.15 0.33,-0.33l0,-26.33c0,-0.18 -0.15,-0.33 -0.33,-0.33" id="svg_9"/>
            <path class="st1" d="m49.68,69.2c1.41,-0.65 2.54,-1.56 3.36,-2.71c0.89,-1.24 1.33,-2.79 1.33,-4.62c0,-2.67 -0.87,-4.75 -2.59,-6.17c-1.7,-1.41 -4.14,-2.12 -7.24,-2.12l-9.25,0c-0.18,0 -0.33,0.15 -0.33,0.33l0,26.33c0,0.18 0.15,0.33 0.33,0.33l4.57,0c0.18,0 0.33,-0.15 0.33,-0.33l0,-9.8l4.57,0l5.18,9.95c0.06,0.11 0.17,0.18 0.29,0.18l4.89,0c0.18,0 0.33,-0.15 0.33,-0.33l0,-0.23c0,-0.06 -0.01,-0.11 -0.04,-0.16l-5.73,-10.65zm-1.73,-4.18c-0.8,0.72 -1.94,1.08 -3.39,1.08l-4.37,0l0,-8.17l4.49,0c1.5,0.02 2.63,0.39 3.36,1.1c0.73,0.7 1.1,1.73 1.1,3.04c0,1.26 -0.39,2.23 -1.19,2.95" id="svg_10"/>
            <path class="st1" d="m71.8,71.39l0.04,0.1l-7.67,0l0.61,-1.74l3.22,-9.25l3.8,10.89zm20.29,-13.46c1.15,0 2.27,0.21 3.34,0.63c-2.68,4.95 -6.98,8.84 -12.16,11.01c-0.23,-0.81 -0.34,-1.63 -0.34,-2.47c0,-5.05 4.11,-9.16 9.16,-9.17m13.8,9.17c0,-1.85 -0.39,-3.67 -1.11,-5.37c-0.13,-0.19 -0.26,-0.08 -0.31,-0.03l-2.74,4.3c-0.25,0.43 -0.42,0.73 -0.47,1.8c0,0.07 -0.01,0.13 -0.02,0.19c-0.45,4.64 -4.37,8.28 -9.13,8.28c-0.89,0 -1.78,-0.13 -2.63,-0.39c-1.45,-0.44 -2.79,-1.24 -3.86,-2.31c-0.04,-0.04 -0.08,-0.08 -0.11,-0.12c5.85,-2.58 10.74,-7.08 13.82,-12.7c0.67,-1.23 1.26,-2.52 1.75,-3.84c0.05,-0.13 0.01,-0.28 -0.1,-0.37c-1.02,-0.86 -2.16,-1.57 -3.38,-2.1c-1.74,-0.76 -3.58,-1.14 -5.49,-1.14c0,0 -0.01,0 -0.01,0c0,0 0,0 -0.01,0c-4.72,0 -8.88,2.39 -11.37,6.02c-1.52,2.21 -2.41,4.89 -2.41,7.77c0,1.3 0.18,2.6 0.55,3.84c-0.63,0.13 -1.26,0.24 -1.89,0.32l-6.6,-17.47c-0.05,-0.13 -0.17,-0.21 -0.31,-0.21l-4.1,0c-0.14,0 -0.26,0.08 -0.31,0.21l-9.93,26.33c-0.04,0.1 -0.02,0.21 0.04,0.3c0.06,0.09 0.16,0.14 0.27,0.14l4.75,0c0.14,0 0.26,-0.09 0.31,-0.22l1.59,-4.58l10.65,0l0.05,0.14l1.55,4.44c0.05,0.13 0.17,0.22 0.31,0.22l4.77,0c0.11,0 0.21,-0.05 0.27,-0.14c0.06,-0.09 0.08,-0.2 0.04,-0.3l-1.74,-4.6c0.74,-0.12 1.48,-0.28 2.21,-0.46c0.02,-0.01 0.04,-0.01 0.06,-0.01c0.02,0.03 0.04,0.06 0.06,0.09c0.9,1.26 2,2.34 3.27,3.24c2.33,1.64 5.06,2.51 7.91,2.51l0,0c0.01,0 0.01,0 0.02,0c7.59,0.01 13.78,-6.17 13.78,-13.78" id="svg_11"/>
          </g>
        </g>
      </g>
    </g>
  </g>
</svg>
