<?xml version="1.0" encoding="UTF-8" standalone="no"?>
<!-- Created with Inkscape (http://www.inkscape.org/) -->

<svg
   xmlns:dc="http://purl.org/dc/elements/1.1/"
   xmlns:cc="http://creativecommons.org/ns#"
   xmlns:rdf="http://www.w3.org/1999/02/22-rdf-syntax-ns#"
   xmlns:svg="http://www.w3.org/2000/svg"
   xmlns="http://www.w3.org/2000/svg"
   xmlns:xlink="http://www.w3.org/1999/xlink"
   xmlns:sodipodi="http://sodipodi.sourceforge.net/DTD/sodipodi-0.dtd"
   xmlns:inkscape="http://www.inkscape.org/namespaces/inkscape"
   width="295.20215mm"
   height="108.47917mm"
   viewBox="0 0 295.20218 108.47917"
   version="1.1"
   id="svg891"
   inkscape:version="0.92.3 (2405546, 2018-03-11)"
   sodipodi:docname="gallantries-logo-with-word.svg">
  <defs
     id="defs885">
    <linearGradient
       id="linearGradient4557"
       inkscape:collect="always">
      <stop
         id="stop4553"
         offset="0"
         style="stop-color:#d0bd2a;stop-opacity:1;" />
      <stop
         id="stop4555"
         offset="1"
         style="stop-color:#d0bd2a;stop-opacity:0;" />
    </linearGradient>
    <linearGradient
       inkscape:collect="always"
       xlink:href="#linearGradient4557"
       id="linearGradient1486"
       gradientUnits="userSpaceOnUse"
       gradientTransform="matrix(1.9527483,0.02106925,-0.01764066,1.9500184,-6.80409,-175.66498)"
       x1="63.084812"
       y1="251.28964"
       x2="114.5666"
       y2="219.66586" />
    <linearGradient
       inkscape:collect="always"
       xlink:href="#linearGradient4557"
       id="linearGradient1534"
       gradientUnits="userSpaceOnUse"
       gradientTransform="matrix(2.0128557,0.12928964,0.07815682,2.122497,-33.268646,-223.31311)"
       x1="63.084812"
       y1="251.28964"
       x2="114.5666"
       y2="219.66586" />
  </defs>
  <sodipodi:namedview
     id="base"
     pagecolor="#ffffff"
     bordercolor="#666666"
     borderopacity="1.0"
     inkscape:pageopacity="0.0"
     inkscape:pageshadow="2"
     inkscape:zoom="0.9899495"
     inkscape:cx="652.98361"
     inkscape:cy="169.77829"
     inkscape:document-units="mm"
     inkscape:current-layer="flowRoot844"
     showgrid="false"
     showguides="true"
     inkscape:snap-bbox="true"
     inkscape:measure-start="710,730"
     inkscape:measure-end="430,775"
     inkscape:window-width="1916"
     inkscape:window-height="1076"
     inkscape:window-x="0"
     inkscape:window-y="0"
     inkscape:window-maximized="1"
     fit-margin-top="0"
     fit-margin-left="0"
     fit-margin-right="0"
     fit-margin-bottom="0">
    <inkscape:grid
       type="xygrid"
       id="grid1488"
       originx="158.44544"
       originy="-314.32495" />
  </sodipodi:namedview>
  <metadata
     id="metadata888">
    <rdf:RDF>
      <cc:Work
         rdf:about="">
        <dc:format>image/svg+xml</dc:format>
        <dc:type
           rdf:resource="http://purl.org/dc/dcmitype/StillImage" />
        <dc:title></dc:title>
      </cc:Work>
    </rdf:RDF>
  </metadata>
  <g
     inkscape:label="Layer 1"
     inkscape:groupmode="layer"
     id="layer1"
     transform="translate(158.44536,125.80415)">
    <rect
       style="display:inline;opacity:1;fill:#2b3143;fill-opacity:1;fill-rule:nonzero;stroke-width:0.460659"
       id="rect1700-8-5"
       width="295.20215"
       height="108.47917"
       x="-158.44536"
       y="-125.80415"
       rx="17.06447"
       ry="0.032451034" />
    <g
       id="g1784-3-7-6-3"
       transform="matrix(0.61113118,0.30042035,-0.33943236,0.49063846,-93.555516,-227.36465)"
       style="display:inline">
      <path
         inkscape:connector-curvature="0"
         inkscape:export-ydpi="300"
         inkscape:export-xdpi="300"
         d="m 55.221469,246.53484 -5.273401,-48.55121 62.099902,-38.02408 26.05351,20.16101 c -47.692495,29.20235 -0.91853,0.79904 -48.790392,29.8746 l 0.658515,15.30679 z"
         style="fill:#ffffff;fill-opacity:1;fill-rule:evenodd;stroke-width:2.06168866"
         id="path4-5-5-1-5"
         sodipodi:nodetypes="ccccccc" />
      <path
         inkscape:connector-curvature="0"
         inkscape:export-ydpi="300"
         inkscape:export-xdpi="300"
         d="m 78.282955,297.16935 -22.703798,-40.0247 40.626934,-24.87607 2.343316,25.52835 20.344413,14.5009 z"
         style="fill:#ffffff;fill-opacity:1;fill-rule:evenodd;stroke-width:1.59313953"
         id="path6-2-2-9-2"
         sodipodi:nodetypes="cccccc" />
      <path
         inkscape:connector-curvature="0"
         inkscape:export-ydpi="300"
         inkscape:export-xdpi="300"
         d="m 85.932556,303.27072 37.772214,27.50822 62.0999,-38.02408 -3.53268,-33.38478 c -48.47345,29.68053 -1.76639,1.08156 -49.45887,30.28391 l -11.5528,-8.01464 z"
         style="opacity:1;fill:url(#linearGradient1534);fill-opacity:1;fill-rule:evenodd;stroke-width:2.06450248"
         id="path8-9-2-3-9"
         sodipodi:nodetypes="ccccccc" />
    </g>
    <path
       sodipodi:type="star"
       style="display:inline;opacity:1;fill:#ffffff;fill-opacity:1;fill-rule:nonzero;stroke-width:0.26458332"
       id="path1540"
       sodipodi:sides="6"
       sodipodi:cx="-85.724998"
       sodipodi:cy="-68.125"
       sodipodi:r1="17.748789"
       sodipodi:r2="15.370902"
       sodipodi:arg1="-2.0943951"
       sodipodi:arg2="-1.5707963"
       inkscape:flatsided="true"
       inkscape:rounded="0"
       inkscape:randomized="0"
       d="m -94.599393,-83.495902 17.748789,0 8.874394,15.370902 -8.874394,15.370902 -17.748789,0 -8.874397,-15.370902 z"
       transform="matrix(1.0787238,0,0,1,12.473437,-2.1166667)" />
    <g
       aria-label="Gallantries"
       transform="matrix(0.34842139,0,0,0.34842139,-198.6243,-232.06576)"
       style="font-style:normal;font-weight:normal;font-size:30px;line-height:125%;font-family:sans-serif;letter-spacing:0px;word-spacing:0px;fill:#ffffff;fill-opacity:1;stroke:none;stroke-width:1px;stroke-linecap:butt;stroke-linejoin:miter;stroke-opacity:1"
       id="flowRoot844">
      <path
         d="m 470.99411,457.4441 h -14.112 v 23.616 c -3.264,1.824 -7.2,3.36 -11.904,3.36 -8.256,0 -10.848,-5.088 -10.848,-21.6 0,-19.2 3.648,-22.08 14.688,-22.08 5.76,0 12.192,0.192 18.72,0.48 l 1.152,-10.752 c -6.24,-1.728 -12.576,-2.304 -20.352,-2.304 -21.792,0 -29.664,7.968 -29.664,34.176 0,24.288 6.24,34.56 21.12,34.56 9.12,0 15.744,-4.416 19.104,-7.968 l 1.344,6.72 h 10.752 z"
         style="font-style:normal;font-variant:normal;font-weight:bold;font-stretch:normal;font-size:96px;font-family:'Exo 2';-inkscape-font-specification:'Exo 2 Bold';fill:#ffffff"
         id="path1399" />
      <path
         d="m 506.46911,446.9801 c -6.624,0 -17.76,1.056 -24.672,2.304 l 1.344,9.6 c 7.584,-0.48 15.456,-0.768 19.968,-0.768 6.048,0 7.68,1.344 7.776,6.144 v 2.112 h -16.896 c -9.024,0 -14.496,4.416 -14.496,12 v 4.8 c 0,8.832 6.624,13.632 15.456,13.632 8.352,0 14.112,-4.416 17.472,-8.352 l 1.44,7.2 h 11.232 v -31.296 c 0,-13.344 -6.432,-17.376 -18.624,-17.376 z m -12.96,32.448 c 0,-2.688 1.152,-4.416 4.608,-4.512 h 12.768 v 6.624 c -4.032,3.072 -8.544,4.608 -11.808,4.608 -3.84,0 -5.568,-1.536 -5.568,-4.896 z"
         style="font-style:normal;font-variant:normal;font-weight:bold;font-stretch:normal;font-size:96px;font-family:'Exo 2';-inkscape-font-specification:'Exo 2 Bold';fill:#ffffff"
         id="path1401" />
      <path
         d="m 550.47611,428.4521 h -14.112 v 55.296 c 0,8.352 5.28,13.056 13.632,13.056 3.072,0 8.928,-0.672 11.328,-1.92 l -1.632,-9.888 h -3.84 c -3.552,0 -5.376,-1.536 -5.376,-4.8 z"
         style="font-style:normal;font-variant:normal;font-weight:bold;font-stretch:normal;font-size:96px;font-family:'Exo 2';-inkscape-font-specification:'Exo 2 Bold';fill:#ffffff"
         id="path1403" />
      <path
         d="m 581.78861,428.4521 h -14.112 v 55.296 c 0,8.352 5.28,13.056 13.632,13.056 3.072,0 8.928,-0.672 11.328,-1.92 l -1.632,-9.888 h -3.84 c -3.552,0 -5.376,-1.536 -5.376,-4.8 z"
         style="font-style:normal;font-variant:normal;font-weight:bold;font-stretch:normal;font-size:96px;font-family:'Exo 2';-inkscape-font-specification:'Exo 2 Bold';fill:#ffffff"
         id="path1405" />
      <path
         d="m 623.46911,446.9801 c -6.624,0 -17.76,1.056 -24.672,2.304 l 1.344,9.6 c 7.584,-0.48 15.456,-0.768 19.968,-0.768 6.048,0 7.68,1.344 7.776,6.144 v 2.112 h -16.896 c -9.024,0 -14.496,4.416 -14.496,12 v 4.8 c 0,8.832 6.624,13.632 15.456,13.632 8.352,0 14.112,-4.416 17.472,-8.352 l 1.44,7.2 h 11.232 v -31.296 c 0,-13.344 -6.432,-17.376 -18.624,-17.376 z m -12.96,32.448 c 0,-2.688 1.152,-4.416 4.608,-4.512 h 12.768 v 6.624 c -4.032,3.072 -8.544,4.608 -11.808,4.608 -3.84,0 -5.568,-1.536 -5.568,-4.896 z"
         style="font-style:normal;font-variant:normal;font-weight:bold;font-stretch:normal;font-size:96px;font-family:'Exo 2';-inkscape-font-specification:'Exo 2 Bold';fill:#ffffff"
         id="path1407" />
      <path
         d="m 686.10011,446.9801 c -6.816,0 -13.728,2.976 -20.256,8.352 l -1.056,-7.008 h -11.52 v 47.328 h 14.208 l -0.096,-32.352 c 5.664,-2.88 9.312,-4.32 13.248,-4.32 3.456,0 4.608,1.248 4.608,5.568 v 31.104 h 14.112 v -35.52 c 0,-8.544 -4.608,-13.152 -13.248,-13.152 z"
         style="font-style:normal;font-variant:normal;font-weight:bold;font-stretch:normal;font-size:96px;font-family:'Exo 2';-inkscape-font-specification:'Exo 2 Bold';fill:#ffffff"
         id="path1409" />
      <path
         d="m 729.26261,457.8281 h 13.152 v -9.504 h -13.152 v -13.248 h -14.112 v 13.248 l -8.352,0.48 v 9.024 h 8.352 v 25.344 c 0,8.64 4.992,13.632 13.536,13.632 3.36,0 9.792,-0.672 13.344,-1.92 l -1.536,-9.888 h -6.048 c -3.84,0 -5.184,-1.248 -5.184,-4.8 z"
         style="font-style:normal;font-variant:normal;font-weight:bold;font-stretch:normal;font-size:96px;font-family:'Exo 2';-inkscape-font-specification:'Exo 2 Bold';fill:#ffffff"
         id="path1411" />
      <path
         d="m 784.18961,446.9801 h -2.496 c -6.144,0 -12.864,2.976 -19.2,8.352 l -1.248,-7.008 h -11.04 v 47.328 h 14.208 v -32.256 c 6.432,-2.208 10.368,-3.264 14.496,-3.264 h 3.84 z"
         style="font-style:normal;font-variant:normal;font-weight:bold;font-stretch:normal;font-size:96px;font-family:'Exo 2';-inkscape-font-specification:'Exo 2 Bold';fill:#ffffff"
         id="path1413" />
      <path
         d="m 795.30461,427.3961 c -2.784,0 -4.128,1.44 -4.128,4.128 v 5.184 c 0,2.784 1.344,4.128 4.128,4.128 h 6.336 c 2.784,0 4.128,-1.344 4.128,-4.128 v -5.184 c 0,-2.688 -1.344,-4.128 -4.128,-4.128 z m 10.272,68.256 v -47.328 h -14.112 v 47.328 z"
         style="font-style:normal;font-variant:normal;font-weight:bold;font-stretch:normal;font-size:96px;font-family:'Exo 2';-inkscape-font-specification:'Exo 2 Bold';fill:#ffffff"
         id="path1415" />
      <path
         d="m 841.80611,485.4761 c -7.2,0 -10.272,-1.536 -11.232,-8.736 h 17.088 c 10.272,0 14.4,-4.608 14.4,-13.248 -0.096,-10.848 -6.336,-16.512 -22.464,-16.512 -17.184,0 -24.096,6.336 -24.096,25.056 0,17.472 6.72,24.768 24.672,24.768 6.72,0 15.072,-0.864 20.64,-3.552 l -1.344,-8.832 c -6.432,0.672 -13.344,1.056 -17.664,1.056 z m -1.728,-28.128 c 6.144,0 8.064,1.536 8.064,5.952 0,2.688 -0.576,4.896 -4.416,4.896 h -13.44 c 0.384,-8.928 2.688,-10.944 9.792,-10.848 z"
         style="font-style:normal;font-variant:normal;font-weight:bold;font-stretch:normal;font-size:96px;font-family:'Exo 2';-inkscape-font-specification:'Exo 2 Bold';fill:#ffffff"
         id="path1417" />
      <path
         d="m 889.18661,446.9801 c -14.784,0 -20.16,3.648 -20.16,13.536 0,7.488 2.496,11.808 11.52,14.4 l 11.808,3.168 c 4.704,1.344 6.72,1.536 6.72,4.416 0,3.072 -2.208,3.552 -11.904,3.552 -6.336,0 -12.96,0 -16.416,-0.192 l -0.864,9.216 c 9.12,1.536 17.664,1.632 21.216,1.632 15.264,0 21.696,-2.784 21.696,-14.496 0,-8.256 -3.648,-11.52 -11.712,-13.824 l -12.096,-3.264 c -4.512,-1.248 -6.24,-1.344 -6.24,-4.224 0,-3.168 1.728,-3.168 9.12,-3.168 5.952,0 12.192,0.096 18.24,0.192 l 0.96,-9.12 c -5.856,-1.056 -15.072,-1.728 -21.888,-1.824 z"
         style="font-style:normal;font-variant:normal;font-weight:bold;font-stretch:normal;font-size:96px;font-family:'Exo 2';-inkscape-font-specification:'Exo 2 Bold';fill:#ffffff"
         id="path1419" />
    </g>
  </g>
</svg>
